<svg width="938" height="385" viewBox="0 0 938 385" fill="none" xmlns="http://www.w3.org/2000/svg">
<path d="M469.134 233.59V298.192C469.134 361.63 450.51 382 391.146 382H29.142C7.60799 382 0.0419922 374.434 0.0419922 352.9V278.404H42.528C77.448 278.404 89.088 266.764 89.088 231.844V153.856C89.088 117.19 76.284 107.296 42.528 107.296H0.0419922V32.8C0.0419922 11.266 7.60799 3.70004 29.142 3.70004H248.556C268.926 3.70004 277.656 12.43 277.656 32.8V107.296H214.8C181.044 107.296 168.24 117.19 168.24 153.856V231.844C168.24 266.764 179.88 278.404 214.8 278.404H323.052C357.972 278.404 369.612 266.764 369.612 231.844V203.326H439.452C461.568 203.326 469.134 211.474 469.134 233.59Z" fill="black"/>
<path d="M752.704 384.91H672.388C576.358 384.91 501.862 320.89 501.862 224.278V172.48C501.862 72.376 565.3 0.790039 664.24 0.790039H733.498C780.058 0.790039 814.396 14.758 837.676 39.7841V3.70004H908.68C930.796 3.70004 937.78 10.102 937.78 32.8V134.65C937.78 160.84 930.796 168.406 908.68 168.406H848.734L842.914 155.02C829.528 123.592 802.756 110.206 741.646 110.206H680.536C614.188 110.206 583.342 132.904 583.342 182.956V209.728C583.342 253.96 615.934 275.494 680.536 275.494H747.466C805.084 275.494 833.02 262.108 843.496 228.934L848.734 212.638H909.262C927.886 212.638 933.706 219.04 933.706 235.918C933.706 318.562 877.834 384.91 752.704 384.91Z" fill="black"/>
</svg>
